<?xml version="1.0" standalone="no"?>
<!DOCTYPE svg PUBLIC "-//W3C//DTD SVG 20010904//EN"
 "http://www.w3.org/TR/2001/REC-SVG-20010904/DTD/svg10.dtd">
<svg version="1.0" xmlns="http://www.w3.org/2000/svg"
 width="700.000000pt" height="700.000000pt" viewBox="0 0 700.000000 700.000000"
 preserveAspectRatio="xMidYMid meet">
<metadata>
Created by potrace 1.11, written by Peter Selinger 2001-2013
</metadata>
<g transform="translate(0.000000,700.000000) scale(0.100000,-0.100000)"
fill="#000000" stroke="none">
<path d="M1798 5015 c-2 -1 -37 -6 -78 -9 -82 -7 -96 -9 -215 -32 -592 -116
-1021 -529 -1174 -1129 -11 -44 -23 -96 -26 -115 -3 -19 -8 -46 -10 -60 -18
-88 -29 -239 -29 -410 -1 -196 7 -296 33 -450 98 -570 432 -1003 921 -1193 64
-24 135 -49 155 -53 6 -1 37 -9 70 -17 33 -8 76 -18 95 -21 19 -3 46 -8 59
-11 139 -27 627 -27 731 0 8 2 31 6 50 9 97 15 249 52 296 72 19 8 36 14 39
13 12 -2 155 56 230 94 103 51 260 144 276 164 11 12 13 162 14 739 l0 724
-45 1 c-405 6 -1160 2 -1163 -6 -3 -9 -1 -350 2 -366 1 -3 162 -5 359 -4 196
0 364 -1 373 -3 14 -3 16 -50 16 -458 l0 -455 -56 -28 c-80 -39 -155 -67 -241
-90 -85 -23 -151 -34 -270 -46 -55 -6 -367 -7 -395 -1 -11 2 -45 7 -75 11
-327 44 -585 187 -745 415 -88 125 -172 324 -200 472 -3 13 -7 34 -10 48 -3
14 -8 41 -10 60 -3 19 -10 64 -15 100 -9 68 -7 519 4 580 3 19 8 51 11 70 14
88 20 117 44 203 112 396 357 647 736 753 157 44 484 66 645 43 331 -46 618
-167 877 -370 35 -27 64 -49 65 -49 2 0 3 109 3 243 l0 242 -55 33 c-159 93
-437 204 -575 228 -16 3 -46 9 -65 14 -91 24 -271 42 -452 45 -108 1 -198 2
-200 0z"/>
<path d="M3570 3256 l0 -1701 228 0 227 0 3 808 c1 444 5 808 10 808 4 1 379
2 835 3 l827 1 0 -50 c0 -27 2 -392 3 -810 l2 -760 229 0 229 0 1 1701 1 1701
-232 -1 -232 0 0 -625 c0 -345 0 -658 -1 -697 l0 -71 -835 0 -835 0 0 697 0
697 -230 0 -230 0 0 -1701z"/>
</g>
</svg>
